Sinopse e detalhes


Recém separado, Fernando (Bruno Mazzeo) não se conforma com o fracasso de seu casamento com Vitória (Tainá Muller), enquanto seu amigo Honório (Marcos Palmeira), um jornalista machão casado com Leila (Dira Paes), não para de desconfiar que a esposa está traindo ele. Também amigo da dupla, Afonsinho (Emilio Orciollo Netto) sonha em ser um escritor de sucesso, tira onda de intelectual e se relaciona com prostitutas. Juntos, eles vão debater e descobrir qual é o papel deles nesse mundo povoado por mulheres, sejam elas interesses amorosos ou não.



General
Complete name                  : E:VideosFilmesComedyE.Ai.Comeu.720p..BluRay.x264-ANGELiCE.Ai.Comeu.720p..BluRay.x264-Kacetov.mp4
Format                         : MPEG-4
Format profile                 : Base Media
Codec ID                       : isom
File size                      : 672 MiB
Duration                       : 1h 44mn
Overall bit rate mode          : Variable
Overall bit rate               : 900 Kbps
Encoded date                   : UTC 2012-11-05 19:35:05
Tagged date                    : UTC 2012-11-05 19:35:05

Video
ID                             : 1
Format                         : AVC
Format/Info                    : Advanced Video Codec
Format profile                 : High@L4.0
Format settings, CABAC         : Yes
Format settings, ReFrames      : 8 frames
Codec ID                       : avc1
Codec ID/Info                  : Advanced Video Coding
Duration                       : 1h 44mn
Bit rate                       : 800 Kbps
Maximum bit rate               : 4 796 Kbps
Width                          : 1 280 pixels
Height                         : 720 pixels
Display aspect ratio           : 16:9
Frame rate mode                : Constant
Frame rate                     : 23.976 fps
Color space                    : YUV
Chroma subsampling             : 4:2:0
Bit depth                      : 8 bits
Scan type                      : Progressive
Bits/(Pixel*Frame)             : 0.036
Stream size                    : 597 MiB (89%)
Writing library                : x264 core 125 r2200 999b753
Encoding settings              : cabac=1 / ref=8 / deblock=1:-1:-1 / analyse=0x3:0x133 / me=umh / subme=7 / psy=1 / psy_rd=1.00:0.00 / mixed_ref=1 / me_range=16 / chroma_me=1 / trellis=2 / 8x8dct=1 / cqm=0 / deadzone=21,11 / fast_pskip=1 / chroma_qp_offset=-2 / threads=12 / lookahead_threads=2 / sliced_threads=0 / nr=0 / decimate=1 / interlaced=0 / bluray_compat=0 / constrained_intra=0 / bframes=3 / b_pyramid=2 / b_adapt=2 / b_bias=0 / direct=3 / weightb=1 / open_gop=0 / weightp=2 / keyint=240 / keyint_min=23 / scenecut=40 / intra_refresh=0 / rc_lookahead=40 / rc=2pass / mbtree=1 / bitrate=800 / ratetol=1.0 / qcomp=0.60 / qpmin=10 / qpmax=51 / qpstep=4 / cplxblur=20.0 / qblur=0.5 / ip_ratio=1.40 / aq=1:1.00
Encoded date                   : UTC 2012-11-05 19:35:05
Tagged date                    : UTC 2012-11-05 19:36:48

Audio
ID                             : 2
Format                         : AAC
Format/Info                    : Advanced Audio Codec
Format profile                 : LC
Codec ID                       : 40
Duration                       : 1h 44mn
Bit rate mode                  : Variable
Bit rate                       : 96.0 Kbps
Maximum bit rate               : 130 Kbps
Channel(s)                     : 2 channels
Channel positions              : Front: L R
Sampling rate                  : 48.0 KHz
Compression mode               : Lossy
Stream size                    : 71.7 MiB (11%)
Language                       : Portuguese
Encoded date                   : UTC 2012-11-05 19:36:45
Tagged date                    : UTC 2012-11-05 19:36:48

